#!OML:ASF G:\JayActor3\Patient Classification 1\Patient 1\Session 6\male.ASF
:FULLY-SPECIFIED
:DEGREES
773
root 20.0004 14.8555 -7.64108 10.7047 -50.6562 -12.4495
lowerback 19.4797 0.684823 4.08079
upperback 8.43217 1.41425 5.1566
thorax -1.81725 0.533742 2.88392
lowerneck -1.87687 -1.63442 2.6624
upperneck 14.3084 -2.01015 -3.90728
head 4.51581 -1.11417 -1.73457
rclavicle -6.04305e-014 -3.18055e-014
rhumerus -31.9291 16.0819 -86.538
rradius 122.827
rwrist 18.1842
rhand 17.5715 -17.7673
rfingers 7.12502
rthumb 42.2664 -42.2674
lclavicle -6.04305e-014 -3.18055e-014
lhumerus -28.0951 -4.3649 75.4101
lradius 126.797
lwrist 5.71413
lhand -0.835647 35.8075
lfingers 7.12502
lthumb 24.7897 64.2209
rfemur 2.10123 -8.05338 21.0497
rtibia 53.0209
rfoot -22.5825 -12.6836
rtoes -22.3148
lfemur -45.4495 15.6815 -15.5706
ltibia 54.3327
lfoot -13.2406 0.846328
ltoes 5.67367
774
root 19.9309 14.8463 -7.55836 10.7176 -51.024 -12.3566
lowerback 19.6054 0.728934 3.75426
upperback 8.5167 1.40537 4.81789
thorax -1.79371 0.52884 2.70761
lowerneck -1.78435 -1.52306 2.65482
upperneck 14.2498 -1.88341 -3.71376
head 4.48938 -1.04127 -1.66674
rclavicle 1.98785e-014 -4.8901e-014
rhumerus -31.7444 16.3085 -86.8427
rradius 122.763
rwrist 18.2728
rhand 17.5336 -17.751
rfingers 7.12502
rthumb 42.2309 -42.2632
lclavicle 1.98785e-014 -4.8901e-014
lhumerus -27.4756 -4.3569 75.0823
lradius 126.959
lwrist 5.7612
lhand -0.891576 35.8232
lfingers 7.12502
lthumb 24.7361 64.2438
rfemur 1.25572 -7.8082 20.6884
rtibia 54.8129
rfoot -21.4792 -12.616
rtoes -20.6951
lfemur -45.3992 15.77 -15.6167
ltibia 54.9874
lfoot -13.3313 1.17675
ltoes 6.46588
775
root 19.863 14.8371 -7.47787 10.731 -51.4087 -12.2793
lowerback 19.7556 0.769003 3.4366
upperback 8.60809 1.39155 4.46827
thorax -1.77418 0.521174 2.51613
lowerneck -1.68804 -1.40307 2.64488
upperneck 14.2119 -1.74494 -3.52006
head 4.46876 -0.963114 -1.59838
rclavicle 3.22031e-014 3.26007e-014
rhumerus -31.5494 16.5668 -87.1427
rradius 122.71
rwrist 18.326
rhand 17.496 -17.7333
rfingers 7.12502
rthumb 42.1957 -42.2574
lclavicle 3.22031e-014 3.26007e-014
lhumerus -26.8494 -4.33006 74.7364
lradius 127.131
lwrist 5.81396
lhand -0.910286 35.8162
lfingers 7.12502
lthumb 24.7182 64.2393
rfemur 0.326265 -7.59355 20.3314
rtibia 56.6881
rfoot -20.3452 -12.5929
rtoes -18.7232
lfemur -45.3247 15.8476 -15.649
ltibia 55.6159
lfoot -13.5379 1.52271
ltoes 6.92946
776
root 19.7967 14.8278 -7.39945 10.7317 -51.8177 -12.2003
lowerback 19.9286 0.810542 3.11936
upperback 8.70462 1.37812 4.10233
thorax -1.75997 0.51341 2.30731
lowerneck -1.5893 -1.2817 2.63993
upperneck 14.195 -1.60464 -3.32964
head 4.45385 -0.884313 -1.53214
rclavicle -6.24184e-014 3.77691e-014
rhumerus -31.3449 16.8458 -87.4367
rradius 122.667
rwrist 18.3539
rhand 17.441 -17.7205
rfingers 7.12502
rthumb 42.1442 -42.2621
lclavicle -6.24184e-014 3.77691e-014
lhumerus -26.2096 -4.29394 74.3757
lradius 127.308
lwrist 5.87713
lhand -0.909124 35.8002
lfingers 7.12502
lthumb 24.7193 64.2232
rfemur -0.676396 -7.41126 19.9665
rtibia 58.6236
rfoot -19.2242 -12.5919
rtoes -16.5673
lfemur -45.2211 15.9288 -15.6822
ltibia 56.2172
lfoot -13.8572 1.88112
ltoes 7.0525
777
root 19.7323 14.8187 -7.32291 10.7149 -52.2496 -12.1064
lowerback 20.1169 0.854467 2.79562
upperback 8.80666 1.36438 3.72151
thorax -1.74696 0.505057 2.08673
lowerneck -1.48593 -1.16149 2.63116
upperneck 13.8135 -1.48916 -3.03266
head 4.8203 -0.79975 -1.57924
rclavicle -3.18055e-014 -3.37934e-015
rhumerus -31.1287 17.1447 -87.7166
rradius 122.631
rwrist 18.3702
rhand 17.358 -17.7137
rfingers 7.12502
rthumb 42.0664 -42.2815
lclavicle -3.18055e-014 -3.37934e-015
lhumerus -25.5553 -4.25015 74.0078
lradius 127.48
lwrist 5.93181
lhand -0.90143 35.781
lfingers 7.12502
lthumb 24.7267 64.203
rfemur -1.75009 -7.27143 19.5851
rtibia 60.5972
rfoot -18.211 -12.5341
rtoes -14.4159
lfemur -45.0912 16.0089 -15.7258
ltibia 56.7881
lfoot -14.2714 2.25739
ltoes 6.91784
778
root 19.6699 14.8096 -7.24824 10.6756 -52.7016 -11.9859
lowerback 20.3149 0.905271 2.46439
upperback 8.91203 1.35568 3.32377
thorax -1.73467 0.498878 1.85157
lowerneck -1.39248 -1.04903 2.63986
upperneck 13.8319 -1.35936 -2.85949
head 4.81325 -0.72765 -1.51443
rclavicle -3.47873e-014 -1.51076e-014
rhumerus -30.9077 17.4398 -87.9805
rradius 122.603
rwrist 18.3819
rhand 17.2297 -17.704
rfingers 7.12502
rthumb 41.9462 -42.312
lclavicle -3.47873e-014 -1.51076e-014
lhumerus -24.8875 -4.21548 73.6341
lradius 127.642
lwrist 5.97547
lhand -0.881925 35.7488
lfingers 7.12502
lthumb 24.7454 64.1682
rfemur -2.8897 -7.18341 19.1836
rtibia 62.5915
rfoot -17.3878 -12.3892
rtoes -12.6757
lfemur -44.9396 16.0939 -15.7915
ltibia 57.3265
lfoot -14.7463 2.64966
ltoes 6.57247
779
root 19.6097 14.8007 -7.17529 10.6141 -53.168 -11.8318
lowerback 20.5137 0.958838 2.1199
upperback 9.01979 1.34534 2.91419
thorax -1.7197 0.491355 1.61194
lowerneck -1.29665 -0.939281 2.65275
upperneck 13.8527 -1.23227 -2.69733
head 4.80626 -0.657338 -1.45445
rclavicle 7.15873e-014 -7.0817e-015
rhumerus -30.6809 17.7406 -88.2176
rradius 122.579
rwrist 18.393
rhand 17.0602 -17.6838
rfingers 7.12502
rthumb 41.7873 -42.3447
lclavicle 7.15873e-014 -7.0817e-015
lhumerus -24.2098 -4.17772 73.2637
lradius 127.784
lwrist 6.00052
lhand -0.871855 35.712
lfingers 7.12502
lthumb 24.755 64.1301
rfemur -4.09448 -7.16153 18.7609
rtibia 64.5917
rfoot -16.8018 -12.1334
rtoes -11.5438
lfemur -44.7747 16.1786 -15.8845
ltibia 57.8318
lfoot -15.2407 3.06144
ltoes 6.14252
